# xmcd
#
# Track frame offsets: 
#        150
#        13837
#        31536
#        44357
#        57242
#        67264
#        80073
#        93080
#        108021
#        122212
#        135995
#
# Disc length: 1952 seconds
#
# Revision: 0
# Processed by: cddbd v1.5.2PL0 Copyright (c) Steve Scherf et al.
# Submitted via: ExactAudioCopyFreeDBPlugin 1.0
#
DISCID=89079e0b
DTITLE=Honky Tonk Twisters - High Octwang
DYEAR=2005
DGENRE=Country
TTITLE0=One More Tear
TTITLE1=I Don't Have The Heart
TTITLE2=Out Of My Mind
TTITLE3=Honky Tonk Girls
TTITLE4=My Radio's Nashville Bound
TTITLE5=Girl Like You
TTITLE6=Missin' That Kissin' 
TTITLE7=What Will Become Of Me?
TTITLE8=You Used To
TTITLE9=Sweet Little Sugar Baby
TTITLE10=The Honky Tonk Twist
EXTD=
EXTT0=
EXTT1=
EXTT2=
EXTT3=
EXTT4=
EXTT5=
EXTT6=
EXTT7=
EXTT8=
EXTT9=
EXTT10=
PLAYORDER=
